<?xml version="1.0" encoding="UTF-8" standalone="no"?>
<!-- Created with Inkscape (http://www.inkscape.org/) -->

<svg
   version="1.1"
   id="svg1982"
   width="220"
   height="386.66666"
   viewBox="0 0 220 386.66666"
   sodipodi:docname="IBVP_2same.eps"
   xmlns:inkscape="http://www.inkscape.org/namespaces/inkscape"
   xmlns:sodipodi="http://sodipodi.sourceforge.net/DTD/sodipodi-0.dtd"
   xmlns="http://www.w3.org/2000/svg"
   xmlns:svg="http://www.w3.org/2000/svg">
  <defs
     id="defs1986">
    <clipPath
       clipPathUnits="userSpaceOnUse"
       id="clipPath2000">
      <path
         d="M 0,0 H 1650 V 2900 H 0 Z m 1642,324 v 72 h -172.2 l 144,-36 -144,-36 z"
         clip-rule="evenodd"
         id="path1998" />
    </clipPath>
    <clipPath
       clipPathUnits="userSpaceOnUse"
       id="clipPath2014">
      <path
         d="M 0,0 H 1650 V 2900 H 0 Z m 229,2889 h -72 v -172.2 l 36,144 36,-144 z"
         clip-rule="evenodd"
         id="path2012" />
    </clipPath>
    <clipPath
       clipPathUnits="userSpaceOnUse"
       id="clipPath2030">
      <path
         d="M 0,0 H 1650 V 2900 H 0 Z m 1290.4,1070.4 -20.4,30 -83.4,-55.8 70.2,24.6 -50.4,-54.6 z"
         clip-rule="evenodd"
         id="path2028" />
    </clipPath>
    <clipPath
       clipPathUnits="userSpaceOnUse"
       id="clipPath2044">
      <path
         d="M 0,0 H 1650 V 2900 H 0 Z m 1290.4,1790.4 -20.4,30 -83.4,-55.8 70.2,24.6 -50.4,-54.6 z"
         clip-rule="evenodd"
         id="path2042" />
    </clipPath>
    <clipPath
       clipPathUnits="userSpaceOnUse"
       id="clipPath2058">
      <path
         d="M 0,0 H 1650 V 2900 H 0 Z m 1291,1252.2 -22.8,27.6 -77.4,-64.2 67.2,31.8 -43.8,-59.4 z"
         clip-rule="evenodd"
         id="path2056" />
    </clipPath>
    <clipPath
       clipPathUnits="userSpaceOnUse"
       id="clipPath2072">
      <path
         d="M 0,0 H 1650 V 2900 H 0 Z m 1291,1972.2 -22.8,27.6 -77.4,-64.2 67.2,31.8 -43.8,-59.4 z"
         clip-rule="evenodd"
         id="path2070" />
    </clipPath>
  </defs>
  <sodipodi:namedview
     id="namedview1984"
     pagecolor="#ffffff"
     bordercolor="#000000"
     borderopacity="0.25"
     inkscape:showpageshadow="2"
     inkscape:pageopacity="0.0"
     inkscape:pagecheckerboard="0"
     inkscape:deskcolor="#d1d1d1"
     showgrid="false" />
  <g
     id="g1990"
     inkscape:groupmode="layer"
     inkscape:label="Page 1"
     transform="matrix(1.3333333,0,0,-1.3333333,0,386.66667)">
    <g
       id="g1992"
       transform="scale(0.1)">
      <g
         id="g1994">
        <g
           id="g1996"
           clip-path="url(#clipPath2000)">
          <path
             d="M 13,360 H 1633"
             style="fill:none;stroke:#000000;stroke-width:9;stroke-linecap:butt;stroke-linejoin:miter;stroke-miterlimit:10;stroke-dasharray:none;stroke-opacity:1"
             id="path2002" />
        </g>
      </g>
      <path
         d="m 1469.8,324 144,36 -144,36 z"
         style="fill:#000000;fill-opacity:1;fill-rule:evenodd;stroke:none"
         id="path2004" />
      <path
         d="m 1469.8,324 144,36 -144,36 z"
         style="fill:none;stroke:#000000;stroke-width:9;stroke-linecap:butt;stroke-linejoin:miter;stroke-miterlimit:10;stroke-dasharray:none;stroke-opacity:1"
         id="path2006" />
      <g
         id="g2008">
        <g
           id="g2010"
           clip-path="url(#clipPath2014)">
          <path
             d="M 193,180 V 2880"
             style="fill:none;stroke:#000000;stroke-width:9;stroke-linecap:butt;stroke-linejoin:miter;stroke-miterlimit:10;stroke-dasharray:none;stroke-opacity:1"
             id="path2016" />
        </g>
      </g>
      <path
         d="m 229,2716.8 -36,144 -36,-144 z"
         style="fill:#000000;fill-opacity:1;fill-rule:evenodd;stroke:none"
         id="path2018" />
      <path
         d="m 229,2716.8 -36,144 -36,-144 z"
         style="fill:none;stroke:#000000;stroke-width:9;stroke-linecap:butt;stroke-linejoin:miter;stroke-miterlimit:10;stroke-dasharray:none;stroke-opacity:1"
         id="path2020" />
      <path
         d="M 1273,270 V 2880"
         style="fill:none;stroke:#000000;stroke-width:4.5;stroke-linecap:butt;stroke-linejoin:miter;stroke-miterlimit:10;stroke-dasharray:none;stroke-opacity:1"
         id="path2022" />
      <g
         id="g2024">
        <g
           id="g2026"
           clip-path="url(#clipPath2030)">
          <path
             d="m 193,360 1080,720"
             style="fill:none;stroke:#000000;stroke-width:4.5;stroke-linecap:butt;stroke-linejoin:miter;stroke-miterlimit:10;stroke-dasharray:none;stroke-opacity:1"
             id="path2032" />
        </g>
      </g>
      <path
         d="m 1206.4,1014.6 50.4,54.6 -70.2,-24.6 z"
         style="fill:#000000;fill-opacity:1;fill-rule:evenodd;stroke:none"
         id="path2034" />
      <path
         d="m 1206.4,1014.6 50.4,54.6 -70.2,-24.6 z"
         style="fill:none;stroke:#000000;stroke-width:9;stroke-linecap:butt;stroke-linejoin:miter;stroke-miterlimit:10;stroke-dasharray:none;stroke-opacity:1"
         id="path2036" />
      <g
         id="g2038">
        <g
           id="g2040"
           clip-path="url(#clipPath2044)">
          <path
             d="m 193,1080 1080,720"
             style="fill:none;stroke:#000000;stroke-width:4.5;stroke-linecap:butt;stroke-linejoin:miter;stroke-miterlimit:10;stroke-dasharray:none;stroke-opacity:1"
             id="path2046" />
        </g>
      </g>
      <path
         d="m 1206.4,1734.6 50.4,54.6 -70.2,-24.6 z"
         style="fill:#000000;fill-opacity:1;fill-rule:evenodd;stroke:none"
         id="path2048" />
      <path
         d="m 1206.4,1734.6 50.4,54.6 -70.2,-24.6 z"
         style="fill:none;stroke:#000000;stroke-width:9;stroke-linecap:butt;stroke-linejoin:miter;stroke-miterlimit:10;stroke-dasharray:none;stroke-opacity:1"
         id="path2050" />
      <g
         id="g2052">
        <g
           id="g2054"
           clip-path="url(#clipPath2058)">
          <path
             d="m 193,360 1080,900"
             style="fill:none;stroke:#000000;stroke-width:4.5;stroke-linecap:butt;stroke-linejoin:miter;stroke-miterlimit:10;stroke-dasharray:none;stroke-opacity:1"
             id="path2060" />
        </g>
      </g>
      <path
         d="m 1214.2,1188 43.8,59.4 -67.2,-31.8 z"
         style="fill:#000000;fill-opacity:1;fill-rule:evenodd;stroke:none"
         id="path2062" />
      <path
         d="m 1214.2,1188 43.8,59.4 -67.2,-31.8 z"
         style="fill:none;stroke:#000000;stroke-width:9;stroke-linecap:butt;stroke-linejoin:miter;stroke-miterlimit:10;stroke-dasharray:none;stroke-opacity:1"
         id="path2064" />
      <g
         id="g2066">
        <g
           id="g2068"
           clip-path="url(#clipPath2072)">
          <path
             d="m 193,1080 1080,900"
             style="fill:none;stroke:#000000;stroke-width:4.5;stroke-linecap:butt;stroke-linejoin:miter;stroke-miterlimit:10;stroke-dasharray:none;stroke-opacity:1"
             id="path2074" />
        </g>
      </g>
      <path
         d="m 1214.2,1908 43.8,59.4 -67.2,-31.8 z"
         style="fill:#000000;fill-opacity:1;fill-rule:evenodd;stroke:none"
         id="path2076" />
      <path
         d="m 1214.2,1908 43.8,59.4 -67.2,-31.8 z"
         style="fill:none;stroke:#000000;stroke-width:9;stroke-linecap:butt;stroke-linejoin:miter;stroke-miterlimit:10;stroke-dasharray:none;stroke-opacity:1"
         id="path2078" />
      <g
         id="g2080"
         transform="scale(10)">
        <text
           xml:space="preserve"
           transform="matrix(1,0,0,-1,19.3,0)"
           style="font-variant:normal;font-weight:bold;font-size:14.4px;font-family:Helvetica;-inkscape-font-specification:Helvetica-Bold;writing-mode:lr-tb;fill:#000000;fill-opacity:1;fill-rule:nonzero;stroke:none"
           id="text2088"><tspan
             x="0 108"
             y="0"
             sodipodi:role="line"
             id="tspan2082">01</tspan><tspan
             x="54 62.006401 70.416"
             y="-126"
             sodipodi:role="line"
             id="tspan2084">a+b</tspan><tspan
             x="28.786301 36.792702 45.202301"
             y="-171"
             sodipodi:role="line"
             id="tspan2086">a−b</tspan></text>
      </g>
    </g>
  </g>
</svg>
