<?xml version="1.0" encoding="UTF-8" standalone="no"?>
<!-- Created with Inkscape (http://www.inkscape.org/) -->

<svg
   version="1.1"
   id="svg544"
   width="220"
   height="386.66666"
   viewBox="0 0 220 386.66666"
   sodipodi:docname="IBVp_aneg.eps"
   xmlns:inkscape="http://www.inkscape.org/namespaces/inkscape"
   xmlns:sodipodi="http://sodipodi.sourceforge.net/DTD/sodipodi-0.dtd"
   xmlns="http://www.w3.org/2000/svg"
   xmlns:svg="http://www.w3.org/2000/svg">
  <defs
     id="defs548">
    <clipPath
       clipPathUnits="userSpaceOnUse"
       id="clipPath562">
      <path
         d="M 0,0 H 1650 V 2900 H 0 Z m 1642,324 v 72 h -172.2 l 144,-36 -144,-36 z"
         clip-rule="evenodd"
         id="path560" />
    </clipPath>
    <clipPath
       clipPathUnits="userSpaceOnUse"
       id="clipPath576">
      <path
         d="M 0,0 H 1650 V 2900 H 0 Z m 229,2889 h -72 v -172.2 l 36,144 36,-144 z"
         clip-rule="evenodd"
         id="path574" />
    </clipPath>
    <clipPath
       clipPathUnits="userSpaceOnUse"
       id="clipPath592">
      <path
         d="M 0,0 H 1650 V 2900 H 0 Z m 195.398,1100.4 -20.398,-30 84,-55.8 -49.801,54.6 69.602,-24.6 z"
         clip-rule="evenodd"
         id="path590" />
    </clipPath>
    <clipPath
       clipPathUnits="userSpaceOnUse"
       id="clipPath606">
      <path
         d="M 0,0 H 1650 V 2900 H 0 Z m 195.398,740.398 -20.398,-30 84,-55.796 -49.801,54.597 69.602,-24.597 z"
         clip-rule="evenodd"
         id="path604" />
    </clipPath>
    <clipPath
       clipPathUnits="userSpaceOnUse"
       id="clipPath620">
      <path
         d="M 0,0 H 1650 V 2900 H 0 Z m 195.398,1460.4 -20.398,-30 84,-55.8 -49.801,54.6 69.602,-24.6 z"
         clip-rule="evenodd"
         id="path618" />
    </clipPath>
    <clipPath
       clipPathUnits="userSpaceOnUse"
       id="clipPath634">
      <path
         d="M 0,0 H 1650 V 2900 H 0 Z m 195.398,1820.4 -20.398,-30 84,-55.8 -49.801,54.6 69.602,-24.6 z"
         clip-rule="evenodd"
         id="path632" />
    </clipPath>
    <clipPath
       clipPathUnits="userSpaceOnUse"
       id="clipPath648">
      <path
         d="M 0,0 H 1650 V 2900 H 0 Z m 195.398,2180.4 -20.398,-30 84,-55.8 -49.801,54.6 69.602,-24.6 z"
         clip-rule="evenodd"
         id="path646" />
    </clipPath>
  </defs>
  <sodipodi:namedview
     id="namedview546"
     pagecolor="#ffffff"
     bordercolor="#000000"
     borderopacity="0.25"
     inkscape:showpageshadow="2"
     inkscape:pageopacity="0.0"
     inkscape:pagecheckerboard="0"
     inkscape:deskcolor="#d1d1d1"
     showgrid="false" />
  <g
     id="g552"
     inkscape:groupmode="layer"
     inkscape:label="Page 1"
     transform="matrix(1.3333333,0,0,-1.3333333,0,386.66667)">
    <g
       id="g554"
       transform="scale(0.1)">
      <g
         id="g556">
        <g
           id="g558"
           clip-path="url(#clipPath562)">
          <path
             d="M 13,360 H 1633"
             style="fill:none;stroke:#000000;stroke-width:9;stroke-linecap:butt;stroke-linejoin:miter;stroke-miterlimit:10;stroke-dasharray:none;stroke-opacity:1"
             id="path564" />
        </g>
      </g>
      <path
         d="m 1469.8,324 144,36 -144,36 z"
         style="fill:#000000;fill-opacity:1;fill-rule:evenodd;stroke:none"
         id="path566" />
      <path
         d="m 1469.8,324 144,36 -144,36 z"
         style="fill:none;stroke:#000000;stroke-width:9;stroke-linecap:butt;stroke-linejoin:miter;stroke-miterlimit:10;stroke-dasharray:none;stroke-opacity:1"
         id="path568" />
      <g
         id="g570">
        <g
           id="g572"
           clip-path="url(#clipPath576)">
          <path
             d="M 193,180 V 2880"
             style="fill:none;stroke:#000000;stroke-width:9;stroke-linecap:butt;stroke-linejoin:miter;stroke-miterlimit:10;stroke-dasharray:none;stroke-opacity:1"
             id="path578" />
        </g>
      </g>
      <path
         d="m 229,2716.8 -36,144 -36,-144 z"
         style="fill:#000000;fill-opacity:1;fill-rule:evenodd;stroke:none"
         id="path580" />
      <path
         d="m 229,2716.8 -36,144 -36,-144 z"
         style="fill:none;stroke:#000000;stroke-width:9;stroke-linecap:butt;stroke-linejoin:miter;stroke-miterlimit:10;stroke-dasharray:none;stroke-opacity:1"
         id="path582" />
      <path
         d="M 1273,270 V 2880"
         style="fill:none;stroke:#000000;stroke-width:4.5;stroke-linecap:butt;stroke-linejoin:miter;stroke-miterlimit:10;stroke-dasharray:none;stroke-opacity:1"
         id="path584" />
      <g
         id="g586">
        <g
           id="g588"
           clip-path="url(#clipPath592)">
          <path
             d="M 1273,360 193,1080"
             style="fill:none;stroke:#000000;stroke-width:4.5;stroke-linecap:butt;stroke-linejoin:miter;stroke-miterlimit:10;stroke-dasharray:none;stroke-opacity:1"
             id="path594" />
        </g>
      </g>
      <path
         d="M 278.801,1044.6 209.199,1069.2 259,1014.6 Z"
         style="fill:#000000;fill-opacity:1;fill-rule:evenodd;stroke:none"
         id="path596" />
      <path
         d="M 278.801,1044.6 209.199,1069.2 259,1014.6 Z"
         style="fill:none;stroke:#000000;stroke-width:9;stroke-linecap:butt;stroke-linejoin:miter;stroke-miterlimit:10;stroke-dasharray:none;stroke-opacity:1"
         id="path598" />
      <g
         id="g600">
        <g
           id="g602"
           clip-path="url(#clipPath606)">
          <path
             d="M 733,360 193,720"
             style="fill:none;stroke:#000000;stroke-width:4.5;stroke-linecap:butt;stroke-linejoin:miter;stroke-miterlimit:10;stroke-dasharray:none;stroke-opacity:1"
             id="path608" />
        </g>
      </g>
      <path
         d="M 278.801,684.602 209.199,709.199 259,654.602 Z"
         style="fill:#000000;fill-opacity:1;fill-rule:evenodd;stroke:none"
         id="path610" />
      <path
         d="M 278.801,684.602 209.199,709.199 259,654.602 Z"
         style="fill:none;stroke:#000000;stroke-width:9;stroke-linecap:butt;stroke-linejoin:miter;stroke-miterlimit:10;stroke-dasharray:none;stroke-opacity:1"
         id="path612" />
      <g
         id="g614">
        <g
           id="g616"
           clip-path="url(#clipPath620)">
          <path
             d="M 1273,720 193,1440"
             style="fill:none;stroke:#000000;stroke-width:4.5;stroke-linecap:butt;stroke-linejoin:miter;stroke-miterlimit:10;stroke-dasharray:none;stroke-opacity:1"
             id="path622" />
        </g>
      </g>
      <path
         d="M 278.801,1404.6 209.199,1429.2 259,1374.6 Z"
         style="fill:#000000;fill-opacity:1;fill-rule:evenodd;stroke:none"
         id="path624" />
      <path
         d="M 278.801,1404.6 209.199,1429.2 259,1374.6 Z"
         style="fill:none;stroke:#000000;stroke-width:9;stroke-linecap:butt;stroke-linejoin:miter;stroke-miterlimit:10;stroke-dasharray:none;stroke-opacity:1"
         id="path626" />
      <g
         id="g628">
        <g
           id="g630"
           clip-path="url(#clipPath634)">
          <path
             d="M 1273,1080 193,1800"
             style="fill:none;stroke:#000000;stroke-width:4.5;stroke-linecap:butt;stroke-linejoin:miter;stroke-miterlimit:10;stroke-dasharray:none;stroke-opacity:1"
             id="path636" />
        </g>
      </g>
      <path
         d="M 278.801,1764.6 209.199,1789.2 259,1734.6 Z"
         style="fill:#000000;fill-opacity:1;fill-rule:evenodd;stroke:none"
         id="path638" />
      <path
         d="M 278.801,1764.6 209.199,1789.2 259,1734.6 Z"
         style="fill:none;stroke:#000000;stroke-width:9;stroke-linecap:butt;stroke-linejoin:miter;stroke-miterlimit:10;stroke-dasharray:none;stroke-opacity:1"
         id="path640" />
      <g
         id="g642">
        <g
           id="g644"
           clip-path="url(#clipPath648)">
          <path
             d="M 1273,1440 193,2160"
             style="fill:none;stroke:#000000;stroke-width:4.5;stroke-linecap:butt;stroke-linejoin:miter;stroke-miterlimit:10;stroke-dasharray:none;stroke-opacity:1"
             id="path650" />
        </g>
      </g>
      <path
         d="M 278.801,2124.6 209.199,2149.2 259,2094.6 Z"
         style="fill:#000000;fill-opacity:1;fill-rule:evenodd;stroke:none"
         id="path652" />
      <path
         d="M 278.801,2124.6 209.199,2149.2 259,2094.6 Z"
         style="fill:none;stroke:#000000;stroke-width:9;stroke-linecap:butt;stroke-linejoin:miter;stroke-miterlimit:10;stroke-dasharray:none;stroke-opacity:1"
         id="path654" />
      <g
         id="g656"
         transform="scale(10)">
        <text
           xml:space="preserve"
           transform="matrix(1,0,0,-1,19.3,0)"
           style="font-variant:normal;font-weight:bold;font-size:14.4px;font-family:Helvetica;-inkscape-font-specification:Helvetica-Bold;writing-mode:lr-tb;fill:#000000;fill-opacity:1;fill-rule:nonzero;stroke:none"
           id="text660"><tspan
             x="0 108"
             y="0"
             sodipodi:role="line"
             id="tspan658">01</tspan></text>
      </g>
    </g>
  </g>
</svg>
