<?xml version="1.0" encoding="UTF-8" standalone="no"?>
<!-- Created with Inkscape (http://www.inkscape.org/) -->

<svg
   version="1.1"
   id="svg2283"
   width="220"
   height="386.66666"
   viewBox="0 0 220 386.66666"
   sodipodi:docname="IBVP_2diff.eps"
   xmlns:inkscape="http://www.inkscape.org/namespaces/inkscape"
   xmlns:sodipodi="http://sodipodi.sourceforge.net/DTD/sodipodi-0.dtd"
   xmlns="http://www.w3.org/2000/svg"
   xmlns:svg="http://www.w3.org/2000/svg">
  <defs
     id="defs2287">
    <clipPath
       clipPathUnits="userSpaceOnUse"
       id="clipPath2301">
      <path
         d="M 0,0 H 1650 V 2900 H 0 Z m 1642,324 v 72 h -172.2 l 144,-36 -144,-36 z"
         clip-rule="evenodd"
         id="path2299" />
    </clipPath>
    <clipPath
       clipPathUnits="userSpaceOnUse"
       id="clipPath2315">
      <path
         d="M 0,0 H 1650 V 2900 H 0 Z m 229,2889 h -72 v -172.2 l 36,144 36,-144 z"
         clip-rule="evenodd"
         id="path2313" />
    </clipPath>
    <clipPath
       clipPathUnits="userSpaceOnUse"
       id="clipPath2331">
      <path
         d="M 0,0 H 1650 V 2900 H 0 Z m 1290.4,1070.4 -20.4,30 -83.4,-55.8 70.2,24.6 -50.4,-54.6 z"
         clip-rule="evenodd"
         id="path2329" />
    </clipPath>
    <clipPath
       clipPathUnits="userSpaceOnUse"
       id="clipPath2345">
      <path
         d="M 0,0 H 1650 V 2900 H 0 Z m 1290.4,1790.4 -20.4,30 -83.4,-55.8 70.2,24.6 -50.4,-54.6 z"
         clip-rule="evenodd"
         id="path2343" />
    </clipPath>
    <clipPath
       clipPathUnits="userSpaceOnUse"
       id="clipPath2359">
      <path
         d="M 0,0 H 1650 V 2900 H 0 Z m 199,1459.2 -25.199,-25.2 70.801,-71.4 -37.801,63.6 63.597,-37.8 z"
         clip-rule="evenodd"
         id="path2357" />
    </clipPath>
    <clipPath
       clipPathUnits="userSpaceOnUse"
       id="clipPath2373">
      <path
         d="M 0,0 H 1650 V 2900 H 0 Z m 199.602,2179.2 -26.403,-24.6 69.602,-72.6 -36.602,64.2 62.403,-39 z"
         clip-rule="evenodd"
         id="path2371" />
    </clipPath>
  </defs>
  <sodipodi:namedview
     id="namedview2285"
     pagecolor="#ffffff"
     bordercolor="#000000"
     borderopacity="0.25"
     inkscape:showpageshadow="2"
     inkscape:pageopacity="0.0"
     inkscape:pagecheckerboard="0"
     inkscape:deskcolor="#d1d1d1"
     showgrid="false" />
  <g
     id="g2291"
     inkscape:groupmode="layer"
     inkscape:label="Page 1"
     transform="matrix(1.3333333,0,0,-1.3333333,0,386.66667)">
    <g
       id="g2293"
       transform="scale(0.1)">
      <g
         id="g2295">
        <g
           id="g2297"
           clip-path="url(#clipPath2301)">
          <path
             d="M 13,360 H 1633"
             style="fill:none;stroke:#000000;stroke-width:9;stroke-linecap:butt;stroke-linejoin:miter;stroke-miterlimit:10;stroke-dasharray:none;stroke-opacity:1"
             id="path2303" />
        </g>
      </g>
      <path
         d="m 1469.8,324 144,36 -144,36 z"
         style="fill:#000000;fill-opacity:1;fill-rule:evenodd;stroke:none"
         id="path2305" />
      <path
         d="m 1469.8,324 144,36 -144,36 z"
         style="fill:none;stroke:#000000;stroke-width:9;stroke-linecap:butt;stroke-linejoin:miter;stroke-miterlimit:10;stroke-dasharray:none;stroke-opacity:1"
         id="path2307" />
      <g
         id="g2309">
        <g
           id="g2311"
           clip-path="url(#clipPath2315)">
          <path
             d="M 193,180 V 2880"
             style="fill:none;stroke:#000000;stroke-width:9;stroke-linecap:butt;stroke-linejoin:miter;stroke-miterlimit:10;stroke-dasharray:none;stroke-opacity:1"
             id="path2317" />
        </g>
      </g>
      <path
         d="m 229,2716.8 -36,144 -36,-144 z"
         style="fill:#000000;fill-opacity:1;fill-rule:evenodd;stroke:none"
         id="path2319" />
      <path
         d="m 229,2716.8 -36,144 -36,-144 z"
         style="fill:none;stroke:#000000;stroke-width:9;stroke-linecap:butt;stroke-linejoin:miter;stroke-miterlimit:10;stroke-dasharray:none;stroke-opacity:1"
         id="path2321" />
      <path
         d="M 1273,270 V 2880"
         style="fill:none;stroke:#000000;stroke-width:4.5;stroke-linecap:butt;stroke-linejoin:miter;stroke-miterlimit:10;stroke-dasharray:none;stroke-opacity:1"
         id="path2323" />
      <g
         id="g2325">
        <g
           id="g2327"
           clip-path="url(#clipPath2331)">
          <path
             d="m 193,360 1080,720"
             style="fill:none;stroke:#000000;stroke-width:4.5;stroke-linecap:butt;stroke-linejoin:miter;stroke-miterlimit:10;stroke-dasharray:none;stroke-opacity:1"
             id="path2333" />
        </g>
      </g>
      <path
         d="m 1206.4,1014.6 50.4,54.6 -70.2,-24.6 z"
         style="fill:#000000;fill-opacity:1;fill-rule:evenodd;stroke:none"
         id="path2335" />
      <path
         d="m 1206.4,1014.6 50.4,54.6 -70.2,-24.6 z"
         style="fill:none;stroke:#000000;stroke-width:9;stroke-linecap:butt;stroke-linejoin:miter;stroke-miterlimit:10;stroke-dasharray:none;stroke-opacity:1"
         id="path2337" />
      <g
         id="g2339">
        <g
           id="g2341"
           clip-path="url(#clipPath2345)">
          <path
             d="m 193,1080 1080,720"
             style="fill:none;stroke:#000000;stroke-width:4.5;stroke-linecap:butt;stroke-linejoin:miter;stroke-miterlimit:10;stroke-dasharray:none;stroke-opacity:1"
             id="path2347" />
        </g>
      </g>
      <path
         d="m 1206.4,1734.6 50.4,54.6 -70.2,-24.6 z"
         style="fill:#000000;fill-opacity:1;fill-rule:evenodd;stroke:none"
         id="path2349" />
      <path
         d="m 1206.4,1734.6 50.4,54.6 -70.2,-24.6 z"
         style="fill:none;stroke:#000000;stroke-width:9;stroke-linecap:butt;stroke-linejoin:miter;stroke-miterlimit:10;stroke-dasharray:none;stroke-opacity:1"
         id="path2351" />
      <g
         id="g2353">
        <g
           id="g2355"
           clip-path="url(#clipPath2359)">
          <path
             d="M 1273,360 193,1440"
             style="fill:none;stroke:#000000;stroke-width:4.5;stroke-linecap:butt;stroke-linejoin:miter;stroke-miterlimit:10;stroke-dasharray:none;stroke-opacity:1"
             id="path2361" />
        </g>
      </g>
      <path
         d="m 270.398,1388.4 -63.597,37.8 37.801,-63.6 z"
         style="fill:#000000;fill-opacity:1;fill-rule:evenodd;stroke:none"
         id="path2363" />
      <path
         d="m 270.398,1388.4 -63.597,37.8 37.801,-63.6 z"
         style="fill:none;stroke:#000000;stroke-width:9;stroke-linecap:butt;stroke-linejoin:miter;stroke-miterlimit:10;stroke-dasharray:none;stroke-opacity:1"
         id="path2365" />
      <g
         id="g2367">
        <g
           id="g2369"
           clip-path="url(#clipPath2373)">
          <path
             d="M 1228,1080 193,2160"
             style="fill:none;stroke:#000000;stroke-width:4.5;stroke-linecap:butt;stroke-linejoin:miter;stroke-miterlimit:10;stroke-dasharray:none;stroke-opacity:1"
             id="path2375" />
        </g>
      </g>
      <path
         d="m 268.602,2107.2 -62.403,39 36.602,-64.2 z"
         style="fill:#000000;fill-opacity:1;fill-rule:evenodd;stroke:none"
         id="path2377" />
      <path
         d="m 268.602,2107.2 -62.403,39 36.602,-64.2 z"
         style="fill:none;stroke:#000000;stroke-width:9;stroke-linecap:butt;stroke-linejoin:miter;stroke-miterlimit:10;stroke-dasharray:none;stroke-opacity:1"
         id="path2379" />
      <g
         id="g2381"
         transform="scale(10)">
        <text
           xml:space="preserve"
           transform="matrix(1,0,0,-1,19.3,0)"
           style="font-variant:normal;font-weight:bold;font-size:14.4px;font-family:Helvetica;-inkscape-font-specification:Helvetica-Bold;writing-mode:lr-tb;fill:#000000;fill-opacity:1;fill-rule:nonzero;stroke:none"
           id="text2389"><tspan
             x="0 108"
             y="0"
             sodipodi:role="line"
             id="tspan2383">01</tspan><tspan
             x="36 44.006401 52.416"
             y="-193.5"
             sodipodi:role="line"
             id="tspan2385">a−b</tspan><tspan
             x="13.5 21.506399 29.916"
             y="-63"
             sodipodi:role="line"
             id="tspan2387">a+b</tspan></text>
      </g>
    </g>
  </g>
</svg>
