<?xml version="1.0" encoding="UTF-8" standalone="no"?>
<!-- Created with Inkscape (http://www.inkscape.org/) -->

<svg
   version="1.1"
   id="svg946"
   width="220"
   height="386.66666"
   viewBox="0 0 220 386.66666"
   sodipodi:docname="IBVP_apos_spec.eps"
   xmlns:inkscape="http://www.inkscape.org/namespaces/inkscape"
   xmlns:sodipodi="http://sodipodi.sourceforge.net/DTD/sodipodi-0.dtd"
   xmlns="http://www.w3.org/2000/svg"
   xmlns:svg="http://www.w3.org/2000/svg">
  <defs
     id="defs950">
    <clipPath
       clipPathUnits="userSpaceOnUse"
       id="clipPath964">
      <path
         d="M 0,0 H 1650 V 2900 H 0 Z m 1642,324 v 72 h -172.2 l 144,-36 -144,-36 z"
         clip-rule="evenodd"
         id="path962" />
    </clipPath>
    <clipPath
       clipPathUnits="userSpaceOnUse"
       id="clipPath978">
      <path
         d="M 0,0 H 1650 V 2900 H 0 Z m 229,2889 h -72 v -172.2 l 36,144 36,-144 z"
         clip-rule="evenodd"
         id="path976" />
    </clipPath>
    <clipPath
       clipPathUnits="userSpaceOnUse"
       id="clipPath994">
      <path
         d="M 0,0 H 1650 V 2900 H 0 Z m 1290.4,1070.4 -20.4,30 -83.4,-55.8 70.2,24.6 -50.4,-54.6 z"
         clip-rule="evenodd"
         id="path992" />
    </clipPath>
    <clipPath
       clipPathUnits="userSpaceOnUse"
       id="clipPath1008">
      <path
         d="M 0,0 H 1650 V 2900 H 0 Z m 1290.4,710.398 -20.4,30 -83.4,-55.796 70.2,24.597 -50.4,-54.597 z"
         clip-rule="evenodd"
         id="path1006" />
    </clipPath>
    <clipPath
       clipPathUnits="userSpaceOnUse"
       id="clipPath1022">
      <path
         d="M 0,0 H 1650 V 2900 H 0 Z m 1290.4,1430.4 -20.4,30 -83.4,-55.8 70.2,24.6 -50.4,-54.6 z"
         clip-rule="evenodd"
         id="path1020" />
    </clipPath>
    <clipPath
       clipPathUnits="userSpaceOnUse"
       id="clipPath1036">
      <path
         d="M 0,0 H 1650 V 2900 H 0 Z m 1290.4,1790.4 -20.4,30 -83.4,-55.8 70.2,24.6 -50.4,-54.6 z"
         clip-rule="evenodd"
         id="path1034" />
    </clipPath>
    <clipPath
       clipPathUnits="userSpaceOnUse"
       id="clipPath1050">
      <path
         d="M 0,0 H 1650 V 2900 H 0 Z m 1290.4,2150.4 -20.4,30 -83.4,-55.8 70.2,24.6 -50.4,-54.6 z"
         clip-rule="evenodd"
         id="path1048" />
    </clipPath>
  </defs>
  <sodipodi:namedview
     id="namedview948"
     pagecolor="#ffffff"
     bordercolor="#000000"
     borderopacity="0.25"
     inkscape:showpageshadow="2"
     inkscape:pageopacity="0.0"
     inkscape:pagecheckerboard="0"
     inkscape:deskcolor="#d1d1d1"
     showgrid="false" />
  <g
     id="g954"
     inkscape:groupmode="layer"
     inkscape:label="Page 1"
     transform="matrix(1.3333333,0,0,-1.3333333,0,386.66667)">
    <g
       id="g956"
       transform="scale(0.1)">
      <g
         id="g958">
        <g
           id="g960"
           clip-path="url(#clipPath964)">
          <path
             d="M 13,360 H 1633"
             style="fill:none;stroke:#000000;stroke-width:9;stroke-linecap:butt;stroke-linejoin:miter;stroke-miterlimit:10;stroke-dasharray:none;stroke-opacity:1"
             id="path966" />
        </g>
      </g>
      <path
         d="m 1469.8,324 144,36 -144,36 z"
         style="fill:#000000;fill-opacity:1;fill-rule:evenodd;stroke:none"
         id="path968" />
      <path
         d="m 1469.8,324 144,36 -144,36 z"
         style="fill:none;stroke:#000000;stroke-width:9;stroke-linecap:butt;stroke-linejoin:miter;stroke-miterlimit:10;stroke-dasharray:none;stroke-opacity:1"
         id="path970" />
      <g
         id="g972">
        <g
           id="g974"
           clip-path="url(#clipPath978)">
          <path
             d="M 193,180 V 2880"
             style="fill:none;stroke:#000000;stroke-width:9;stroke-linecap:butt;stroke-linejoin:miter;stroke-miterlimit:10;stroke-dasharray:none;stroke-opacity:1"
             id="path980" />
        </g>
      </g>
      <path
         d="m 229,2716.8 -36,144 -36,-144 z"
         style="fill:#000000;fill-opacity:1;fill-rule:evenodd;stroke:none"
         id="path982" />
      <path
         d="m 229,2716.8 -36,144 -36,-144 z"
         style="fill:none;stroke:#000000;stroke-width:9;stroke-linecap:butt;stroke-linejoin:miter;stroke-miterlimit:10;stroke-dasharray:none;stroke-opacity:1"
         id="path984" />
      <path
         d="M 1273,270 V 2880"
         style="fill:none;stroke:#000000;stroke-width:4.5;stroke-linecap:butt;stroke-linejoin:miter;stroke-miterlimit:10;stroke-dasharray:none;stroke-opacity:1"
         id="path986" />
      <g
         id="g988">
        <g
           id="g990"
           clip-path="url(#clipPath994)">
          <path
             d="m 193,360 1080,720"
             style="fill:none;stroke:#000000;stroke-width:4.5;stroke-linecap:butt;stroke-linejoin:miter;stroke-miterlimit:10;stroke-dasharray:none;stroke-opacity:1"
             id="path996" />
        </g>
      </g>
      <path
         d="m 1206.4,1014.6 50.4,54.6 -70.2,-24.6 z"
         style="fill:#000000;fill-opacity:1;fill-rule:evenodd;stroke:none"
         id="path998" />
      <path
         d="m 1206.4,1014.6 50.4,54.6 -70.2,-24.6 z"
         style="fill:none;stroke:#000000;stroke-width:9;stroke-linecap:butt;stroke-linejoin:miter;stroke-miterlimit:10;stroke-dasharray:none;stroke-opacity:1"
         id="path1000" />
      <g
         id="g1002">
        <g
           id="g1004"
           clip-path="url(#clipPath1008)">
          <path
             d="m 733,360 540,360"
             style="fill:none;stroke:#000000;stroke-width:4.5;stroke-linecap:butt;stroke-linejoin:miter;stroke-miterlimit:10;stroke-dasharray:none;stroke-opacity:1"
             id="path1010" />
        </g>
      </g>
      <path
         d="m 1206.4,654.602 50.4,54.597 -70.2,-24.597 z"
         style="fill:#000000;fill-opacity:1;fill-rule:evenodd;stroke:none"
         id="path1012" />
      <path
         d="m 1206.4,654.602 50.4,54.597 -70.2,-24.597 z"
         style="fill:none;stroke:#000000;stroke-width:9;stroke-linecap:butt;stroke-linejoin:miter;stroke-miterlimit:10;stroke-dasharray:none;stroke-opacity:1"
         id="path1014" />
      <g
         id="g1016">
        <g
           id="g1018"
           clip-path="url(#clipPath1022)">
          <path
             d="m 193,720 1080,720"
             style="fill:none;stroke:#000000;stroke-width:4.5;stroke-linecap:butt;stroke-linejoin:miter;stroke-miterlimit:10;stroke-dasharray:none;stroke-opacity:1"
             id="path1024" />
        </g>
      </g>
      <path
         d="m 1206.4,1374.6 50.4,54.6 -70.2,-24.6 z"
         style="fill:#000000;fill-opacity:1;fill-rule:evenodd;stroke:none"
         id="path1026" />
      <path
         d="m 1206.4,1374.6 50.4,54.6 -70.2,-24.6 z"
         style="fill:none;stroke:#000000;stroke-width:9;stroke-linecap:butt;stroke-linejoin:miter;stroke-miterlimit:10;stroke-dasharray:none;stroke-opacity:1"
         id="path1028" />
      <g
         id="g1030">
        <g
           id="g1032"
           clip-path="url(#clipPath1036)">
          <path
             d="m 193,1080 1080,720"
             style="fill:none;stroke:#000000;stroke-width:4.5;stroke-linecap:butt;stroke-linejoin:miter;stroke-miterlimit:10;stroke-dasharray:none;stroke-opacity:1"
             id="path1038" />
        </g>
      </g>
      <path
         d="m 1206.4,1734.6 50.4,54.6 -70.2,-24.6 z"
         style="fill:#000000;fill-opacity:1;fill-rule:evenodd;stroke:none"
         id="path1040" />
      <path
         d="m 1206.4,1734.6 50.4,54.6 -70.2,-24.6 z"
         style="fill:none;stroke:#000000;stroke-width:9;stroke-linecap:butt;stroke-linejoin:miter;stroke-miterlimit:10;stroke-dasharray:none;stroke-opacity:1"
         id="path1042" />
      <g
         id="g1044">
        <g
           id="g1046"
           clip-path="url(#clipPath1050)">
          <path
             d="m 193,1440 1080,720"
             style="fill:none;stroke:#000000;stroke-width:4.5;stroke-linecap:butt;stroke-linejoin:miter;stroke-miterlimit:10;stroke-dasharray:none;stroke-opacity:1"
             id="path1052" />
        </g>
      </g>
      <path
         d="m 1206.4,2094.6 50.4,54.6 -70.2,-24.6 z"
         style="fill:#000000;fill-opacity:1;fill-rule:evenodd;stroke:none"
         id="path1054" />
      <path
         d="m 1206.4,2094.6 50.4,54.6 -70.2,-24.6 z"
         style="fill:none;stroke:#000000;stroke-width:9;stroke-linecap:butt;stroke-linejoin:miter;stroke-miterlimit:10;stroke-dasharray:none;stroke-opacity:1"
         id="path1056" />
      <path
         d="M 193,315 H 1273"
         style="fill:none;stroke:#ff0000;stroke-width:27;stroke-linecap:butt;stroke-linejoin:miter;stroke-miterlimit:10;stroke-dasharray:none;stroke-opacity:1"
         id="path1058" />
      <path
         d="M 148,360 V 2700"
         style="fill:none;stroke:#ff0000;stroke-width:27;stroke-linecap:butt;stroke-linejoin:miter;stroke-miterlimit:10;stroke-dasharray:none;stroke-opacity:1"
         id="path1060" />
      <g
         id="g1062"
         transform="scale(10)">
        <text
           xml:space="preserve"
           transform="matrix(1,0,0,-1,19.3,0)"
           style="font-variant:normal;font-weight:bold;font-size:14.4px;font-family:Helvetica;-inkscape-font-specification:Helvetica-Bold;writing-mode:lr-tb;fill:#000000;fill-opacity:1;fill-rule:nonzero;stroke:none"
           id="text1066"><tspan
             x="0 108"
             y="0"
             sodipodi:role="line"
             id="tspan1064">01</tspan></text>
      </g>
    </g>
  </g>
</svg>
