<?xml version="1.0" encoding="UTF-8" standalone="no"?>
<!-- Created with Inkscape (http://www.inkscape.org/) -->

<svg
   version="1.1"
   id="svg55"
   width="220"
   height="386.66666"
   viewBox="0 0 220 386.66666"
   xmlns="http://www.w3.org/2000/svg"
   xmlns:svg="http://www.w3.org/2000/svg">
  <defs
     id="defs59">
    <clipPath
       clipPathUnits="userSpaceOnUse"
       id="clipPath73">
      <path
         d="M 0,0 H 1650 V 2900 H 0 Z m 1642,324 v 72 h -172.2 l 144,-36 -144,-36 z"
         clip-rule="evenodd"
         id="path71" />
    </clipPath>
    <clipPath
       clipPathUnits="userSpaceOnUse"
       id="clipPath87">
      <path
         d="M 0,0 H 1650 V 2900 H 0 Z m 229,2889 h -72 v -172.2 l 36,144 36,-144 z"
         clip-rule="evenodd"
         id="path85" />
    </clipPath>
    <clipPath
       clipPathUnits="userSpaceOnUse"
       id="clipPath103">
      <path
         d="M 0,0 H 1650 V 2900 H 0 Z m 1290.4,1070.4 -20.4,30 -83.4,-55.8 70.2,24.6 -50.4,-54.6 z"
         clip-rule="evenodd"
         id="path101" />
    </clipPath>
    <clipPath
       clipPathUnits="userSpaceOnUse"
       id="clipPath117">
      <path
         d="M 0,0 H 1650 V 2900 H 0 Z m 1290.4,710.398 -20.4,30 -83.4,-55.796 70.2,24.597 -50.4,-54.597 z"
         clip-rule="evenodd"
         id="path115" />
    </clipPath>
    <clipPath
       clipPathUnits="userSpaceOnUse"
       id="clipPath131">
      <path
         d="M 0,0 H 1650 V 2900 H 0 Z m 1290.4,1430.4 -20.4,30 -83.4,-55.8 70.2,24.6 -50.4,-54.6 z"
         clip-rule="evenodd"
         id="path129" />
    </clipPath>
    <clipPath
       clipPathUnits="userSpaceOnUse"
       id="clipPath145">
      <path
         d="M 0,0 H 1650 V 2900 H 0 Z m 1290.4,1790.4 -20.4,30 -83.4,-55.8 70.2,24.6 -50.4,-54.6 z"
         clip-rule="evenodd"
         id="path143" />
    </clipPath>
    <clipPath
       clipPathUnits="userSpaceOnUse"
       id="clipPath159">
      <path
         d="M 0,0 H 1650 V 2900 H 0 Z m 1290.4,2150.4 -20.4,30 -83.4,-55.8 70.2,24.6 -50.4,-54.6 z"
         clip-rule="evenodd"
         id="path157" />
    </clipPath>
  </defs>
  <g
     id="g63"
     transform="matrix(1.3333333,0,0,-1.3333333,0,386.66667)">
    <g
       id="g65"
       transform="scale(0.1)">
      <g
         id="g67">
        <g
           id="g69"
           clip-path="url(#clipPath73)">
          <path
             d="M 13,360 H 1633"
             style="fill:none;stroke:#000000;stroke-width:9;stroke-linecap:butt;stroke-linejoin:miter;stroke-miterlimit:10;stroke-dasharray:none;stroke-opacity:1"
             id="path75" />
        </g>
      </g>
      <path
         d="m 1469.8,324 144,36 -144,36 z"
         style="fill:#000000;fill-opacity:1;fill-rule:evenodd;stroke:none"
         id="path77" />
      <path
         d="m 1469.8,324 144,36 -144,36 z"
         style="fill:none;stroke:#000000;stroke-width:9;stroke-linecap:butt;stroke-linejoin:miter;stroke-miterlimit:10;stroke-dasharray:none;stroke-opacity:1"
         id="path79" />
      <g
         id="g81">
        <g
           id="g83"
           clip-path="url(#clipPath87)">
          <path
             d="M 193,180 V 2880"
             style="fill:none;stroke:#000000;stroke-width:9;stroke-linecap:butt;stroke-linejoin:miter;stroke-miterlimit:10;stroke-dasharray:none;stroke-opacity:1"
             id="path89" />
        </g>
      </g>
      <path
         d="m 229,2716.8 -36,144 -36,-144 z"
         style="fill:#000000;fill-opacity:1;fill-rule:evenodd;stroke:none"
         id="path91" />
      <path
         d="m 229,2716.8 -36,144 -36,-144 z"
         style="fill:none;stroke:#000000;stroke-width:9;stroke-linecap:butt;stroke-linejoin:miter;stroke-miterlimit:10;stroke-dasharray:none;stroke-opacity:1"
         id="path93" />
      <path
         d="M 1273,270 V 2880"
         style="fill:none;stroke:#000000;stroke-width:4.5;stroke-linecap:butt;stroke-linejoin:miter;stroke-miterlimit:10;stroke-dasharray:none;stroke-opacity:1"
         id="path95" />
      <g
         id="g97">
        <g
           id="g99"
           clip-path="url(#clipPath103)">
          <path
             d="m 193,360 1080,720"
             style="fill:none;stroke:#000000;stroke-width:4.5;stroke-linecap:butt;stroke-linejoin:miter;stroke-miterlimit:10;stroke-dasharray:none;stroke-opacity:1"
             id="path105" />
        </g>
      </g>
      <path
         d="m 1206.4,1014.6 50.4,54.6 -70.2,-24.6 z"
         style="fill:#000000;fill-opacity:1;fill-rule:evenodd;stroke:none"
         id="path107" />
      <path
         d="m 1206.4,1014.6 50.4,54.6 -70.2,-24.6 z"
         style="fill:none;stroke:#000000;stroke-width:9;stroke-linecap:butt;stroke-linejoin:miter;stroke-miterlimit:10;stroke-dasharray:none;stroke-opacity:1"
         id="path109" />
      <g
         id="g111">
        <g
           id="g113"
           clip-path="url(#clipPath117)">
          <path
             d="m 733,360 540,360"
             style="fill:none;stroke:#000000;stroke-width:4.5;stroke-linecap:butt;stroke-linejoin:miter;stroke-miterlimit:10;stroke-dasharray:none;stroke-opacity:1"
             id="path119" />
        </g>
      </g>
      <path
         d="m 1206.4,654.602 50.4,54.597 -70.2,-24.597 z"
         style="fill:#000000;fill-opacity:1;fill-rule:evenodd;stroke:none"
         id="path121" />
      <path
         d="m 1206.4,654.602 50.4,54.597 -70.2,-24.597 z"
         style="fill:none;stroke:#000000;stroke-width:9;stroke-linecap:butt;stroke-linejoin:miter;stroke-miterlimit:10;stroke-dasharray:none;stroke-opacity:1"
         id="path123" />
      <g
         id="g125">
        <g
           id="g127"
           clip-path="url(#clipPath131)">
          <path
             d="m 193,720 1080,720"
             style="fill:none;stroke:#000000;stroke-width:4.5;stroke-linecap:butt;stroke-linejoin:miter;stroke-miterlimit:10;stroke-dasharray:none;stroke-opacity:1"
             id="path133" />
        </g>
      </g>
      <path
         d="m 1206.4,1374.6 50.4,54.6 -70.2,-24.6 z"
         style="fill:#000000;fill-opacity:1;fill-rule:evenodd;stroke:none"
         id="path135" />
      <path
         d="m 1206.4,1374.6 50.4,54.6 -70.2,-24.6 z"
         style="fill:none;stroke:#000000;stroke-width:9;stroke-linecap:butt;stroke-linejoin:miter;stroke-miterlimit:10;stroke-dasharray:none;stroke-opacity:1"
         id="path137" />
      <g
         id="g139">
        <g
           id="g141"
           clip-path="url(#clipPath145)">
          <path
             d="m 193,1080 1080,720"
             style="fill:none;stroke:#000000;stroke-width:4.5;stroke-linecap:butt;stroke-linejoin:miter;stroke-miterlimit:10;stroke-dasharray:none;stroke-opacity:1"
             id="path147" />
        </g>
      </g>
      <path
         d="m 1206.4,1734.6 50.4,54.6 -70.2,-24.6 z"
         style="fill:#000000;fill-opacity:1;fill-rule:evenodd;stroke:none"
         id="path149" />
      <path
         d="m 1206.4,1734.6 50.4,54.6 -70.2,-24.6 z"
         style="fill:none;stroke:#000000;stroke-width:9;stroke-linecap:butt;stroke-linejoin:miter;stroke-miterlimit:10;stroke-dasharray:none;stroke-opacity:1"
         id="path151" />
      <g
         id="g153">
        <g
           id="g155"
           clip-path="url(#clipPath159)">
          <path
             d="m 193,1440 1080,720"
             style="fill:none;stroke:#000000;stroke-width:4.5;stroke-linecap:butt;stroke-linejoin:miter;stroke-miterlimit:10;stroke-dasharray:none;stroke-opacity:1"
             id="path161" />
        </g>
      </g>
      <path
         d="m 1206.4,2094.6 50.4,54.6 -70.2,-24.6 z"
         style="fill:#000000;fill-opacity:1;fill-rule:evenodd;stroke:none"
         id="path163" />
      <path
         d="m 1206.4,2094.6 50.4,54.6 -70.2,-24.6 z"
         style="fill:none;stroke:#000000;stroke-width:9;stroke-linecap:butt;stroke-linejoin:miter;stroke-miterlimit:10;stroke-dasharray:none;stroke-opacity:1"
         id="path165" />
      <g
         id="g167"
         transform="scale(10)">
        <text
           xml:space="preserve"
           transform="matrix(1,0,0,-1,19.3,0)"
           style="font-variant:normal;font-weight:bold;font-size:14.4px;font-family:Helvetica;-inkscape-font-specification:Helvetica-Bold;writing-mode:lr-tb;fill:#000000;fill-opacity:1;fill-rule:nonzero;stroke:none"
           id="text171"><tspan
             x="0 108"
             y="0"
             id="tspan169">01</tspan></text>
      </g>
    </g>
  </g>
</svg>
