<?xml version="1.0" encoding="UTF-8" standalone="no"?>
<!-- Created with Inkscape (http://www.inkscape.org/) -->

<svg
   version="1.1"
   id="svg900"
   width="316"
   height="340"
   viewBox="0 0 316 340"
   sodipodi:docname="stability_region.eps"
   xmlns:inkscape="http://www.inkscape.org/namespaces/inkscape"
   xmlns:sodipodi="http://sodipodi.sourceforge.net/DTD/sodipodi-0.dtd"
   xmlns="http://www.w3.org/2000/svg"
   xmlns:svg="http://www.w3.org/2000/svg">
  <defs
     id="defs904">
    <clipPath
       clipPathUnits="userSpaceOnUse"
       id="clipPath930">
      <path
         d="M 0,0 H 2370 V 2550 H 0 Z m 229,2002 h -72 v -211.2 l 36,144 36,-144 z"
         clip-rule="evenodd"
         id="path928" />
    </clipPath>
    <clipPath
       clipPathUnits="userSpaceOnUse"
       id="clipPath944">
      <path
         d="M 0,0 H 2370 V 2550 H 0 Z m 2362,157 v 72 h -211.2 l 144,-36 -144,-36 z"
         clip-rule="evenodd"
         id="path942" />
    </clipPath>
  </defs>
  <sodipodi:namedview
     id="namedview902"
     pagecolor="#ffffff"
     bordercolor="#000000"
     borderopacity="0.25"
     inkscape:showpageshadow="2"
     inkscape:pageopacity="0.0"
     inkscape:pagecheckerboard="0"
     inkscape:deskcolor="#d1d1d1"
     showgrid="false" />
  <g
     id="g908"
     inkscape:groupmode="layer"
     inkscape:label="Page 1"
     transform="matrix(1.3333333,0,0,-1.3333333,0,340)">
    <g
       id="g910"
       transform="scale(0.1)">
      <path
         d="m 193,193 900,90 495,540 720,810 v 900 H 553 L 238,1273 193,193"
         style="fill:#ffbfbf;fill-opacity:1;fill-rule:evenodd;stroke:none"
         id="path912" />
      <path
         d="m 193,193 900,90 495,540 720,810 v 900 H 553 L 238,1273 Z"
         style="fill:none;stroke:#000000;stroke-width:4.5;stroke-linecap:butt;stroke-linejoin:miter;stroke-miterlimit:10;stroke-dasharray:none;stroke-opacity:1"
         id="path914" />
      <g
         id="g916"
         transform="scale(10)">
        <text
           xml:space="preserve"
           transform="matrix(1,0,0,-1,28.3,181.3)"
           style="font-variant:normal;font-weight:bold;font-size:14.4px;font-family:Helvetica;-inkscape-font-specification:Helvetica-Bold;writing-mode:lr-tb;fill:#000000;fill-opacity:1;fill-rule:nonzero;stroke:none"
           id="text922"><tspan
             x="0"
             y="0"
             id="tspan918">k</tspan><tspan
             x="189"
             y="153"
             id="tspan920">h</tspan></text>
      </g>
      <g
         id="g924">
        <g
           id="g926"
           clip-path="url(#clipPath930)">
          <path
             d="M 193,13 V 1993"
             style="fill:none;stroke:#000000;stroke-width:9;stroke-linecap:butt;stroke-linejoin:miter;stroke-miterlimit:10;stroke-dasharray:none;stroke-opacity:1"
             id="path932" />
        </g>
      </g>
      <path
         d="m 229,1790.8 -36,144 -36,-144 z"
         style="fill:#000000;fill-opacity:1;fill-rule:evenodd;stroke:none"
         id="path934" />
      <path
         d="m 229,1790.8 -36,144 -36,-144 z"
         style="fill:none;stroke:#000000;stroke-width:27;stroke-linecap:butt;stroke-linejoin:miter;stroke-miterlimit:10;stroke-dasharray:none;stroke-opacity:1"
         id="path936" />
      <g
         id="g938">
        <g
           id="g940"
           clip-path="url(#clipPath944)">
          <path
             d="M 13,193 H 2353"
             style="fill:none;stroke:#000000;stroke-width:9;stroke-linecap:butt;stroke-linejoin:miter;stroke-miterlimit:10;stroke-dasharray:none;stroke-opacity:1"
             id="path946" />
        </g>
      </g>
      <path
         d="m 2150.8,157 144,36 -144,36 z"
         style="fill:#000000;fill-opacity:1;fill-rule:evenodd;stroke:none"
         id="path948" />
      <path
         d="m 2150.8,157 144,36 -144,36 z"
         style="fill:none;stroke:#000000;stroke-width:27;stroke-linecap:butt;stroke-linejoin:miter;stroke-miterlimit:10;stroke-dasharray:none;stroke-opacity:1"
         id="path950" />
    </g>
  </g>
</svg>
